<svg width="67" height="67" viewBox="0 0 67 67" fill="none" xmlns="http://www.w3.org/2000/svg">
<path d="M65.3643 1.571C64.7393 0.946007 63.8297 0.730327 62.9906 1.00803L18.1169 15.8606C16.8943 16.2652 17.5201 18.1564 18.7429 17.7517L63.6165 2.89921C63.9289 2.86654 64.0687 3.00638 64.0361 3.31875L45.0002 60.8315C44.852 61.2793 44.2277 61.3167 44.0269 60.8898L36.3401 44.5364L39.9868 38.6502C40.6651 37.5555 38.9716 36.5064 38.2933 37.6012L34.684 43.4272L25.6795 42.6646L50.588 17.756L41.0564 33.1414C40.3781 34.2361 42.0716 35.2853 42.7498 34.1904L56.808 11.4985C57.35 10.6253 56.3073 9.58554 55.4352 10.1282L22.4508 30.6468L6.03902 22.9101C5.61257 22.7091 5.65029 22.0853 6.09785 21.937L13.7555 19.4025C14.9782 18.9979 14.3522 17.1067 13.1296 17.5114L5.47193 20.0459C3.35803 20.7455 3.17542 23.7626 5.18958 24.7121L21.5699 32.4339L22.4663 43.5561C22.505 44.0377 22.8962 44.4251 23.3751 44.4686L34.5519 45.4152L42.224 61.7372C43.1667 63.7426 46.1923 63.57 46.8914 61.4574L65.9273 3.9448C66.2051 3.10559 65.9893 2.19612 65.3643 1.571ZM24.2789 41.2478L23.6429 33.3557L23.5582 32.3041L49.1303 16.3966L24.2789 41.2478Z" fill="#685ED6"/>
<path d="M19.5063 46.8883C19.1111 46.5055 18.4805 46.5157 18.0979 46.9108L0.283634 65.3077C-0.610294 66.2307 0.815661 67.622 1.71464 66.6936L19.5289 48.2968C19.9117 47.9016 19.9016 47.271 19.5063 46.8883Z" fill="#685ED6"/>
<path d="M25.9022 46.9152L11.8224 61.5776C10.9329 62.5038 12.3632 63.8904 13.2592 62.9575L27.3391 48.2951C28.2311 47.3661 26.7944 45.9864 25.9022 46.9152Z" fill="#685ED6"/>
<path d="M4.31934 55.3827C4.58097 55.3827 4.84233 55.2801 5.03796 55.0765L19.1177 40.4142C20.0098 39.4852 18.5729 38.1055 17.6808 39.0343L3.60098 53.6967C3.02738 54.294 3.495 55.3827 4.31934 55.3827Z" fill="#685ED6"/>
</svg>
